<svg width="314" height="435" viewBox="0 0 314 40" fill="none" xmlns="http://www.w3.org/2000/svg">
<path d="M20.358 11.1989C20.1212 10.4318 19.7945 9.74527 19.3778 9.1392C18.9706 8.52367 18.4782 7.99811 17.9006 7.5625C17.3324 7.12689 16.679 6.80019 15.9403 6.58239C15.2017 6.35511 14.3968 6.24148 13.5256 6.24148C11.9631 6.24148 10.571 6.63447 9.34943 7.42045C8.12784 8.20644 7.16667 9.36174 6.46591 10.8864C5.77462 12.4015 5.42898 14.2481 5.42898 16.4261C5.42898 18.6231 5.77462 20.4839 6.46591 22.0085C7.1572 23.5331 8.11837 24.6932 9.34943 25.4886C10.5805 26.2746 12.0104 26.6676 13.6392 26.6676C15.1165 26.6676 16.3949 26.3835 17.4744 25.8153C18.5634 25.2472 19.4015 24.4422 19.9886 23.4006C20.5758 22.3494 20.8693 21.1184 20.8693 19.7074L22.0625 19.892H14.1648V15.7727H25.9688V19.267C25.9688 21.7576 25.4384 23.9119 24.3778 25.7301C23.3172 27.5483 21.8589 28.9498 20.0028 29.9347C18.1468 30.91 16.0161 31.3977 13.6108 31.3977C10.9309 31.3977 8.57765 30.7964 6.55114 29.5938C4.53409 28.3816 2.95739 26.6629 1.82102 24.4375C0.694129 22.2027 0.130682 19.5511 0.130682 16.483C0.130682 14.1345 0.462121 12.0369 1.125 10.1903C1.79735 8.34375 2.73485 6.77652 3.9375 5.48864C5.14015 4.19129 6.55114 3.20644 8.17045 2.53409C9.78977 1.85227 11.5511 1.51136 13.4545 1.51136C15.0644 1.51136 16.5653 1.74811 17.9574 2.22159C19.3494 2.68561 20.5852 3.34848 21.6648 4.21023C22.7538 5.07197 23.6487 6.0947 24.3494 7.27841C25.0502 8.46212 25.5095 9.76894 25.7273 11.1989H20.358ZM40.4964 31.4261C38.3089 31.4261 36.4197 30.9716 34.8288 30.0625C33.2474 29.1439 32.0305 27.8466 31.1783 26.1705C30.326 24.4848 29.8999 22.5009 29.8999 20.2188C29.8999 17.9744 30.326 16.0047 31.1783 14.3097C32.04 12.6051 33.2427 11.2794 34.7862 10.3324C36.3298 9.37595 38.1432 8.89773 40.2266 8.89773C41.5713 8.89773 42.8402 9.11553 44.0334 9.55114C45.236 9.97727 46.2966 10.6402 47.2152 11.5398C48.1432 12.4394 48.8724 13.5852 49.4027 14.9773C49.933 16.3598 50.1982 18.0076 50.1982 19.9205V21.4972H32.3146V18.0312H45.2692C45.2597 17.0464 45.0466 16.1705 44.63 15.4034C44.2133 14.6269 43.6309 14.0161 42.8828 13.571C42.1442 13.1259 41.2824 12.9034 40.2976 12.9034C39.2464 12.9034 38.3232 13.1591 37.5277 13.6705C36.7322 14.1723 36.112 14.8352 35.6669 15.6591C35.2313 16.4735 35.0088 17.3684 34.9993 18.3438V21.3693C34.9993 22.6383 35.2313 23.7273 35.6953 24.6364C36.1593 25.536 36.808 26.2273 37.6413 26.7102C38.4747 27.1837 39.45 27.4205 40.5675 27.4205C41.3156 27.4205 41.9927 27.3163 42.5987 27.108C43.2048 26.8902 43.7304 26.5729 44.1754 26.1562C44.6205 25.7396 44.9567 25.2235 45.1839 24.608L49.9851 25.1477C49.6821 26.4167 49.1044 27.5246 48.2521 28.4716C47.4093 29.4091 46.3298 30.1383 45.0135 30.6591C43.6972 31.1705 42.1915 31.4261 40.4964 31.4261ZM65.4432 9.18182V13.1591H52.9006V9.18182H65.4432ZM55.9972 3.95455H61.1392V24.4375C61.1392 25.1288 61.2434 25.6591 61.4517 26.0284C61.6695 26.3883 61.9536 26.6345 62.304 26.767C62.6544 26.8996 63.0426 26.9659 63.4688 26.9659C63.7907 26.9659 64.0843 26.9422 64.3494 26.8949C64.6241 26.8475 64.8324 26.8049 64.9744 26.767L65.8409 30.7869C65.5663 30.8816 65.1733 30.9858 64.6619 31.0994C64.16 31.2131 63.5445 31.2794 62.8153 31.2983C61.5275 31.3362 60.3674 31.142 59.3352 30.7159C58.303 30.2803 57.4839 29.608 56.8778 28.6989C56.2813 27.7898 55.9877 26.6534 55.9972 25.2898V3.95455ZM80.6385 9.18182V13.1591H68.0959V9.18182H80.6385ZM71.1925 3.95455H76.3345V24.4375C76.3345 25.1288 76.4387 25.6591 76.647 26.0284C76.8648 26.3883 77.1489 26.6345 77.4993 26.767C77.8497 26.8996 78.2379 26.9659 78.6641 26.9659C78.986 26.9659 79.2796 26.9422 79.5447 26.8949C79.8194 26.8475 80.0277 26.8049 80.1697 26.767L81.0362 30.7869C80.7616 30.8816 80.3686 30.9858 79.8572 31.0994C79.3554 31.2131 78.7398 31.2794 78.0107 31.2983C76.7228 31.3362 75.5627 31.142 74.5305 30.7159C73.4983 30.2803 72.6792 29.608 72.0732 28.6989C71.4766 27.7898 71.183 26.6534 71.1925 25.2898V3.95455ZM84.9389 31V9.18182H90.081V31H84.9389ZM87.5241 6.08523C86.7098 6.08523 86.009 5.81534 85.4219 5.27557C84.8348 4.72632 84.5412 4.06818 84.5412 3.30114C84.5412 2.52462 84.8348 1.86648 85.4219 1.3267C86.009 0.777461 86.7098 0.50284 87.5241 0.50284C88.348 0.50284 89.0488 0.777461 89.6264 1.3267C90.2135 1.86648 90.5071 2.52462 90.5071 3.30114C90.5071 4.06818 90.2135 4.72632 89.6264 5.27557C89.0488 5.81534 88.348 6.08523 87.5241 6.08523ZM100.511 18.2159V31H95.3686V9.18182H100.283V12.8892H100.539C101.041 11.6676 101.841 10.697 102.94 9.97727C104.048 9.25758 105.416 8.89773 107.045 8.89773C108.55 8.89773 109.862 9.2197 110.979 9.86364C112.106 10.5076 112.978 11.4403 113.593 12.6619C114.218 13.8835 114.526 15.3655 114.516 17.108V31H109.374V17.9034C109.374 16.4451 108.996 15.304 108.238 14.4801C107.49 13.6562 106.453 13.2443 105.127 13.2443C104.228 13.2443 103.427 13.4432 102.727 13.8409C102.035 14.2292 101.491 14.7926 101.093 15.5312C100.705 16.2699 100.511 17.1648 100.511 18.2159ZM129.232 39.6364C127.386 39.6364 125.799 39.3854 124.474 38.8835C123.148 38.3911 122.083 37.7282 121.278 36.8949C120.473 36.0616 119.914 35.1383 119.602 34.125L124.232 33.0028C124.441 33.429 124.744 33.8504 125.141 34.267C125.539 34.6932 126.074 35.0436 126.746 35.3182C127.428 35.6023 128.285 35.7443 129.317 35.7443C130.776 35.7443 131.983 35.3892 132.94 34.679C133.896 33.9782 134.374 32.8229 134.374 31.2131V27.0795H134.119C133.853 27.6098 133.465 28.1544 132.954 28.7131C132.452 29.2718 131.784 29.7405 130.951 30.1193C130.127 30.4981 129.09 30.6875 127.84 30.6875C126.164 30.6875 124.644 30.2945 123.281 29.5085C121.926 28.7131 120.847 27.5294 120.042 25.9574C119.246 24.3759 118.849 22.3968 118.849 20.0199C118.849 17.6241 119.246 15.6023 120.042 13.9545C120.847 12.2973 121.931 11.0426 123.295 10.1903C124.658 9.3286 126.178 8.89773 127.854 8.89773C129.133 8.89773 130.184 9.11553 131.008 9.55114C131.841 9.97727 132.504 10.4934 132.996 11.0994C133.489 11.696 133.863 12.2595 134.119 12.7898H134.403V9.18182H139.474V31.3551C139.474 33.2206 139.029 34.7642 138.138 35.9858C137.248 37.2074 136.031 38.1212 134.488 38.7273C132.944 39.3333 131.192 39.6364 129.232 39.6364ZM129.275 26.6534C130.364 26.6534 131.292 26.3883 132.059 25.858C132.826 25.3277 133.408 24.5653 133.806 23.571C134.204 22.5767 134.403 21.3835 134.403 19.9915C134.403 18.6184 134.204 17.4157 133.806 16.3835C133.418 15.3513 132.84 14.5511 132.073 13.983C131.316 13.4053 130.383 13.1165 129.275 13.1165C128.129 13.1165 127.173 13.4148 126.406 14.0114C125.638 14.608 125.061 15.4271 124.673 16.4688C124.284 17.5009 124.09 18.6752 124.09 19.9915C124.09 21.3267 124.284 22.4962 124.673 23.5C125.07 24.4943 125.653 25.2708 126.42 25.8295C127.196 26.3788 128.148 26.6534 129.275 26.6534ZM171.91 14.9489L167.222 15.4602C167.09 14.9867 166.858 14.5417 166.526 14.125C166.204 13.7083 165.769 13.3722 165.219 13.1165C164.67 12.8608 163.998 12.733 163.202 12.733C162.132 12.733 161.233 12.965 160.504 13.429C159.784 13.893 159.429 14.4943 159.438 15.233C159.429 15.8674 159.661 16.3835 160.134 16.7812C160.617 17.179 161.413 17.5057 162.521 17.7614L166.242 18.5568C168.307 19.0019 169.841 19.7074 170.844 20.6733C171.858 21.6392 172.369 22.9034 172.379 24.4659C172.369 25.839 171.967 27.0511 171.171 28.1023C170.385 29.1439 169.291 29.9583 167.89 30.5455C166.488 31.1326 164.879 31.4261 163.06 31.4261C160.39 31.4261 158.24 30.8674 156.612 29.75C154.983 28.6231 154.012 27.0559 153.7 25.0483L158.714 24.5653C158.941 25.5502 159.424 26.2936 160.163 26.7955C160.901 27.2973 161.862 27.5483 163.046 27.5483C164.268 27.5483 165.248 27.2973 165.987 26.7955C166.735 26.2936 167.109 25.6733 167.109 24.9347C167.109 24.3097 166.867 23.7936 166.384 23.3864C165.911 22.9792 165.172 22.6667 164.168 22.4489L160.447 21.6676C158.354 21.232 156.806 20.4981 155.802 19.4659C154.798 18.4242 154.301 17.108 154.31 15.517C154.301 14.1723 154.665 13.0076 155.404 12.0227C156.152 11.0284 157.189 10.2614 158.515 9.72159C159.85 9.17235 161.389 8.89773 163.131 8.89773C165.688 8.89773 167.701 9.44223 169.168 10.5312C170.646 11.6203 171.559 13.0928 171.91 14.9489ZM187.513 9.18182V13.1591H174.971V9.18182H187.513ZM178.067 3.95455H183.21V24.4375C183.21 25.1288 183.314 25.6591 183.522 26.0284C183.74 26.3883 184.024 26.6345 184.374 26.767C184.725 26.8996 185.113 26.9659 185.539 26.9659C185.861 26.9659 186.155 26.9422 186.42 26.8949C186.694 26.8475 186.903 26.8049 187.045 26.767L187.911 30.7869C187.637 30.8816 187.244 30.9858 186.732 31.0994C186.23 31.2131 185.615 31.2794 184.886 31.2983C183.598 31.3362 182.438 31.142 181.406 30.7159C180.373 30.2803 179.554 29.608 178.948 28.6989C178.352 27.7898 178.058 26.6534 178.067 25.2898V3.95455ZM198.092 31.4403C196.71 31.4403 195.464 31.1941 194.357 30.7017C193.258 30.1998 192.387 29.4612 191.743 28.4858C191.108 27.5104 190.791 26.3078 190.791 24.8778C190.791 23.6468 191.018 22.6288 191.473 21.8239C191.928 21.0189 192.548 20.375 193.334 19.892C194.12 19.4091 195.005 19.0445 195.99 18.7983C196.984 18.5426 198.012 18.358 199.072 18.2443C200.351 18.1117 201.388 17.9934 202.183 17.8892C202.979 17.7756 203.556 17.6051 203.916 17.3778C204.286 17.1411 204.47 16.7765 204.47 16.2841V16.1989C204.47 15.1288 204.153 14.3002 203.518 13.7131C202.884 13.1259 201.97 12.8324 200.777 12.8324C199.518 12.8324 198.518 13.107 197.78 13.6562C197.051 14.2055 196.558 14.8542 196.303 15.6023L191.501 14.9205C191.88 13.5947 192.505 12.4867 193.376 11.5966C194.248 10.697 195.313 10.0246 196.572 9.57955C197.832 9.125 199.224 8.89773 200.749 8.89773C201.8 8.89773 202.846 9.02083 203.888 9.26705C204.929 9.51326 205.881 9.92045 206.743 10.4886C207.605 11.0473 208.296 11.8097 208.817 12.7756C209.347 13.7415 209.612 14.9489 209.612 16.3977V31H204.669V28.0028H204.499C204.186 28.6089 203.746 29.1771 203.178 29.7074C202.619 30.2282 201.913 30.6496 201.061 30.9716C200.218 31.2841 199.229 31.4403 198.092 31.4403ZM199.428 27.6619C200.46 27.6619 201.355 27.4583 202.112 27.0511C202.87 26.6345 203.452 26.0852 203.859 25.4034C204.276 24.7216 204.484 23.9782 204.484 23.1733V20.6023C204.323 20.7348 204.049 20.858 203.661 20.9716C203.282 21.0852 202.856 21.1847 202.382 21.2699C201.909 21.3551 201.44 21.4309 200.976 21.4972C200.512 21.5634 200.109 21.6203 199.768 21.6676C199.001 21.7718 198.315 21.9422 197.709 22.179C197.103 22.4157 196.625 22.7472 196.274 23.1733C195.924 23.59 195.749 24.1297 195.749 24.7926C195.749 25.7396 196.094 26.4545 196.786 26.9375C197.477 27.4205 198.357 27.6619 199.428 27.6619ZM214.783 31V9.18182H219.768V12.8182H219.996C220.393 11.5587 221.075 10.5881 222.041 9.90625C223.017 9.21496 224.129 8.86932 225.379 8.86932C225.663 8.86932 225.981 8.88352 226.331 8.91193C226.691 8.93087 226.989 8.96401 227.226 9.01136V13.7415C227.008 13.6657 226.662 13.5994 226.189 13.5426C225.725 13.4763 225.275 13.4432 224.839 13.4432C223.902 13.4432 223.059 13.6468 222.311 14.054C221.572 14.4517 220.99 15.0057 220.564 15.7159C220.138 16.4261 219.925 17.2453 219.925 18.1733V31H214.783ZM242.709 9.18182V13.1591H230.166V9.18182H242.709ZM233.263 3.95455H238.405V24.4375C238.405 25.1288 238.509 25.6591 238.717 26.0284C238.935 26.3883 239.219 26.6345 239.57 26.767C239.92 26.8996 240.308 26.9659 240.734 26.9659C241.056 26.9659 241.35 26.9422 241.615 26.8949C241.89 26.8475 242.098 26.8049 242.24 26.767L243.107 30.7869C242.832 30.8816 242.439 30.9858 241.928 31.0994C241.426 31.2131 240.81 31.2794 240.081 31.2983C238.793 31.3362 237.633 31.142 236.601 30.7159C235.569 30.2803 234.75 29.608 234.143 28.6989C233.547 27.7898 233.253 26.6534 233.263 25.2898V3.95455ZM256.434 31.4261C254.246 31.4261 252.357 30.9716 250.766 30.0625C249.185 29.1439 247.968 27.8466 247.116 26.1705C246.263 24.4848 245.837 22.5009 245.837 20.2188C245.837 17.9744 246.263 16.0047 247.116 14.3097C247.978 12.6051 249.18 11.2794 250.724 10.3324C252.267 9.37595 254.081 8.89773 256.164 8.89773C257.509 8.89773 258.778 9.11553 259.971 9.55114C261.174 9.97727 262.234 10.6402 263.153 11.5398C264.081 12.4394 264.81 13.5852 265.34 14.9773C265.871 16.3598 266.136 18.0076 266.136 19.9205V21.4972H248.252V18.0312H261.207C261.197 17.0464 260.984 16.1705 260.567 15.4034C260.151 14.6269 259.568 14.0161 258.82 13.571C258.082 13.1259 257.22 12.9034 256.235 12.9034C255.184 12.9034 254.261 13.1591 253.465 13.6705C252.67 14.1723 252.049 14.8352 251.604 15.6591C251.169 16.4735 250.946 17.3684 250.937 18.3438V21.3693C250.937 22.6383 251.169 23.7273 251.633 24.6364C252.097 25.536 252.746 26.2273 253.579 26.7102C254.412 27.1837 255.388 27.4205 256.505 27.4205C257.253 27.4205 257.93 27.3163 258.536 27.108C259.142 26.8902 259.668 26.5729 260.113 26.1562C260.558 25.7396 260.894 25.2235 261.121 24.608L265.923 25.1477C265.62 26.4167 265.042 27.5246 264.19 28.4716C263.347 29.4091 262.267 30.1383 260.951 30.6591C259.635 31.1705 258.129 31.4261 256.434 31.4261ZM278.582 31.3835C276.868 31.3835 275.334 30.9432 273.98 30.0625C272.626 29.1818 271.556 27.9034 270.77 26.2273C269.984 24.5511 269.591 22.5152 269.591 20.1193C269.591 17.6951 269.989 15.6496 270.784 13.983C271.589 12.3068 272.673 11.0426 274.037 10.1903C275.401 9.3286 276.92 8.89773 278.597 8.89773C279.875 8.89773 280.926 9.11553 281.75 9.55114C282.574 9.97727 283.227 10.4934 283.71 11.0994C284.193 11.696 284.567 12.2595 284.832 12.7898H285.045V1.90909H290.202V31H285.145V27.5625H284.832C284.567 28.0928 284.184 28.6562 283.682 29.2528C283.18 29.84 282.517 30.3419 281.693 30.7585C280.869 31.1752 279.832 31.3835 278.582 31.3835ZM280.017 27.1648C281.106 27.1648 282.034 26.8712 282.801 26.2841C283.568 25.6875 284.151 24.8589 284.548 23.7983C284.946 22.7377 285.145 21.5019 285.145 20.0909C285.145 18.6799 284.946 17.4536 284.548 16.4119C284.16 15.3703 283.582 14.5606 282.815 13.983C282.058 13.4053 281.125 13.1165 280.017 13.1165C278.871 13.1165 277.915 13.4148 277.148 14.0114C276.381 14.608 275.803 15.4318 275.415 16.483C275.027 17.5341 274.832 18.7367 274.832 20.0909C274.832 21.4545 275.027 22.6714 275.415 23.7415C275.813 24.8021 276.395 25.6402 277.162 26.2557C277.938 26.8617 278.89 27.1648 280.017 27.1648ZM298.849 31.3125C297.987 31.3125 297.248 31.0095 296.633 30.4034C296.017 29.7973 295.714 29.0587 295.724 28.1875C295.714 27.3352 296.017 26.6061 296.633 26C297.248 25.3939 297.987 25.0909 298.849 25.0909C299.682 25.0909 300.406 25.3939 301.022 26C301.647 26.6061 301.964 27.3352 301.974 28.1875C301.964 28.7652 301.813 29.2907 301.519 29.7642C301.235 30.2377 300.856 30.6165 300.383 30.9006C299.919 31.1752 299.407 31.3125 298.849 31.3125ZM310.45 31.3125C309.589 31.3125 308.85 31.0095 308.234 30.4034C307.619 29.7973 307.316 29.0587 307.325 28.1875C307.316 27.3352 307.619 26.6061 308.234 26C308.85 25.3939 309.589 25.0909 310.45 25.0909C311.284 25.0909 312.008 25.3939 312.624 26C313.249 26.6061 313.566 27.3352 313.575 28.1875C313.566 28.7652 313.414 29.2907 313.121 29.7642C312.837 30.2377 312.458 30.6165 311.984 30.9006C311.52 31.1752 311.009 31.3125 310.45 31.3125Z" fill="black"/>
</svg>
